<?xml version="1.0" encoding="UTF-8"?>
<!DOCTYPE svg PUBLIC "-//W3C//DTD SVG 1.0//EN" "http://www.w3.org/TR/2001/REC-SVG-20010904/DTD/svg10.dtd">
<svg xmlns="http://www.w3.org/2000/svg" xml:space="preserve" width="25.3998mm" height="12.5306mm" version="1.0" style="shape-rendering:geometricPrecision; text-rendering:geometricPrecision; image-rendering:optimizeQuality; fill-rule:evenodd; clip-rule:evenodd"
viewBox="0 0 2539.98 1253.06"
xmlns:xlink="http://www.w3.org/1999/xlink">
<defs>
<style type="text/css">
<![CDATA[
.fil4 {fill:#606062;fill-rule:nonzero}
.fil3 {fill:#39B7ED;fill-rule:nonzero;fill-opacity:0.850980}
.fil2 {fill:#5E37A6;fill-rule:nonzero;fill-opacity:0.850980}
.fil0 {fill:#90B845;fill-rule:nonzero;fill-opacity:0.850980}
.fil1 {fill:#D60B51;fill-rule:nonzero;fill-opacity:0.850980}
]]>
</style>
</defs>
<g id="Camada_x0020_1">
<metadata id="CorelCorpID_0Corel-Layer"/>
<path class="fil0" d="M1916.12 415.39c0,18.11 1.17,35.09 3.46,50.84 2.32,15.92 5.8,30.95 10.38,44.94 4.48,13.73 10.1,26.72 16.76,38.88 6.34,11.68 13.83,22.55 22.37,32.52 16.62,19.4 36.92,34.39 60.83,44.85 12.05,5.24 24.98,9.2 38.72,11.82 13.86,2.64 28.91,3.97 45.08,3.97 31.01,0 58.8,-5.3 83.29,-15.86 12.16,-5.25 23.38,-11.62 33.58,-19.08 10.2,-7.45 19.49,-16.04 27.76,-25.7 8.54,-9.97 16.04,-20.84 22.44,-32.49 6.59,-12.19 12.21,-25.18 16.7,-38.91 4.58,-14 8.06,-29 10.37,-44.91 2.28,-15.78 3.45,-32.75 3.45,-50.87 0,-18.13 -1.17,-35.14 -3.45,-50.99 -2.3,-15.85 -5.8,-31.01 -10.45,-45.39 -4.56,-14.16 -10.17,-27.28 -16.69,-39.27 -6.44,-11.85 -13.94,-22.75 -22.37,-32.6 -8.27,-9.67 -17.56,-18.25 -27.76,-25.71 -10.2,-7.45 -21.42,-13.83 -33.58,-19.07 -12.26,-5.29 -25.29,-9.28 -38.95,-11.89 -13.75,-2.65 -28.55,-3.98 -44.34,-3.98 -16.06,0 -31.06,1.38 -44.94,4.09 -13.82,2.73 -26.72,6.81 -38.63,12.18 -12.14,5.48 -23.28,12 -33.33,19.47 -10.12,7.58 -19.39,16.25 -27.73,26.01 -8.43,9.85 -15.92,20.75 -22.37,32.6 -6.52,11.98 -12.12,25.11 -16.69,39.27 -4.65,14.41 -8.16,29.48 -10.45,45.14 -2.29,15.67 -3.46,32.4 -3.46,50.14zm623.87 0c0,67.36 -10.88,126.82 -32.62,178.36 -10.88,25.81 -23.83,49.59 -38.73,71.24 -14.98,21.75 -32.08,41.44 -51.16,59.01 -19.01,17.59 -39.99,33.02 -62.83,46.31 -22.57,13.15 -47.05,24.18 -73.35,33.04 -26.07,8.8 -53.14,15.39 -81.1,19.76 -28.04,4.41 -56.9,6.61 -86.48,6.61 -28.87,0 -57.11,-2.2 -84.64,-6.61 -27.42,-4.37 -54.1,-10.96 -79.98,-19.76 -26.1,-8.86 -50.54,-19.89 -73.2,-33.02 -22.73,-13.18 -43.91,-28.6 -63.42,-46.18 -19.61,-17.66 -37.04,-37.37 -52.27,-59.02 -15.17,-21.57 -28.35,-45.34 -39.48,-71.24 -11.15,-25.92 -19.49,-53.84 -25.01,-83.66 -5.52,-29.72 -8.28,-61.37 -8.28,-94.84 0,-67.46 11.54,-127.04 34.54,-178.7 11.46,-25.72 24.98,-49.49 40.51,-71.21 15.62,-21.85 33.28,-41.67 52.92,-59.37 19.66,-17.7 40.9,-33.24 63.62,-46.5 22.86,-13.34 47.18,-24.44 72.94,-33.25 25.63,-8.77 51.99,-15.39 78.96,-19.77 27,-4.39 54.65,-6.6 82.79,-6.6 28.86,0 57.09,2.21 84.63,6.6 27.42,4.38 54.1,10.98 80,19.77 25.93,8.8 50.33,19.9 73.2,33.23 22.85,13.3 44.03,28.85 63.5,46.59 19.43,17.72 36.87,37.56 52.19,59.43 15.21,21.75 28.41,45.55 39.46,71.3 11.15,25.94 19.5,53.85 25.02,83.66 5.51,29.73 8.27,61.37 8.27,94.82z"/>
<path class="fil1" d="M1518.49 -0.01c101.75,4.89 182.21,26.17 241.21,63.81 35.34,22.53 61.89,52.3 79.55,89.21 17.32,36.2 26.02,79.11 26.02,128.66 0,101.09 -35.57,174.5 -106.68,220.11 -34.59,22.21 -76.4,38.84 -125.33,49.82 -48.18,10.81 -103.31,16.23 -165.33,16.23l-37.98 0 0 261.89 -220.49 0 -1.04 -829.73 310.07 0zm-35.4 186.96c-13.29,0 -25.94,0.38 -37.9,1.06l-15.24 0.98 0 190.78 37.98 0c59.86,0 104.3,-7.59 133.3,-22.69 12.41,-6.47 21.74,-15.71 27.87,-27.62 6.55,-12.75 9.86,-29.08 9.86,-48.93 0,-18.74 -3.31,-33.92 -9.86,-45.44 -3.25,-5.71 -7.18,-10.85 -11.73,-15.33 -4.69,-4.63 -10.11,-8.72 -16.16,-12.18 -6.4,-3.66 -13.62,-6.82 -21.64,-9.45 -8.32,-2.72 -17.39,-4.87 -27.11,-6.37 -20.48,-3.2 -43.63,-4.81 -69.37,-4.81z"/>
<path class="fil2" d="M1064.57 820.43l-151.63 -230.72 -161.77 240.01 -255.18 0 14.81 -26.67c17.22,-31.01 36.26,-62.87 57.05,-95.54 20.57,-32.31 42.7,-65.11 66.32,-98.39 24.35,-34.17 49.53,-68.71 75.34,-103.27 23.53,-31.48 48.21,-63.89 73.98,-97.07l-279.17 -408.79 270.13 0 145.17 213.81 148.48 -213.81 257.29 0 -277.62 400.16c31.86,39.03 60.96,76.34 87.25,111.87 28.76,38.88 54.64,76.23 77.55,111.97 22.82,35.89 43.12,68.56 60.71,97.91 17.71,29.55 33.29,56.71 46.62,81.37l14.32 26.45 -264.8 0 -4.85 -9.29z"/>
<polygon class="fil3" points="-0.01,811.96 -0.01,-0.01 589.38,-0.01 589.38,186.74 222.27,186.74 222.27,304.89 548.2,304.89 548.2,489.3 222.27,489.3 222.27,642.97 616.45,642.97 616.45,829.72 -0.01,829.72 "/>
<path class="fil4" d="M59.22 1182.9l0 -39.9 70.8 0 0 -60.03 -70.8 0 0 -39.2 78.81 0 0 -63.32 -137.97 0 0 265.9 140.59 0 0 -63.45 -81.43 0zm388.76 63.45l-32.3 -265.96 -59.36 0 -51.09 144.69 -50.78 -144.69 -59.37 0 -32.6 265.96 60.18 0 16.64 -153.12 57.15 153.5 17.56 0 57.2 -153.56 16.85 153.18 59.92 0zm121.08 -265.96l-91.76 0 0 265.96 59.46 0 0 -73.71 32.3 0c45.86,0 79.85,-40.53 79.85,-96.32 0,-55.72 -33.99,-95.93 -79.85,-95.93l0 0zm-7.13 128.42l-25.17 0 0 -64.59 25.17 0c15.66,0 25.98,13.36 25.98,32.29 0,18.94 -10.32,32.3 -25.98,32.3l0 0zm229.79 137.54l66.34 0 -42.83 -96.63c21.31,-15.65 34.21,-42.31 34.21,-75.17 0,-55.73 -33.7,-94.16 -80.06,-94.16l-93.35 0 0 265.96 59.46 0 0 -81.31 21.41 0 34.82 81.31zm-56.23 -200.99l26.95 0c16.54,0 26.09,12.22 26.09,29 0,16.72 -9.55,29.13 -26.09,29.13l-26.95 0 0 -58.13zm207.97 137.54l0 -39.9 70.8 0 0 -60.03 -70.8 0 0 -39.2 78.82 0 0 -63.32 -137.98 0 0 265.9 140.6 0 0 -63.45 -81.44 0zm174.69 0l0 -39.9 70.8 0 0 -60.03 -70.8 0 0 -39.2 78.82 0 0 -63.32 -137.98 0 0 265.9 140.6 0 0 -63.45 -81.44 0zm250.16 -202.51l0 139.5 -82.62 -139.5 -52.01 0 0 265.96 57.62 0 0 -144.32 85.49 144.32 49.15 0 0 -265.96 -57.63 0zm186.77 0.06l-87.2 0 0 265.84 87.2 0c64.9,0 111.11,-55.6 111.11,-133.11 0,-77.64 -46.01,-132.73 -111.11,-132.73l0 0zm-2.83 198.71l-24.7 0 0 -131.59 24.7 0c31.83,0 53.05,26.16 53.05,65.61 0,39.13 -21.22,65.98 -53.05,65.98l0 0zm204.27 3.74l0 -39.9 70.81 0 0 -60.03 -70.81 0 0 -39.2 78.82 0 0 -63.32 -137.97 0 0 265.9 140.59 0 0 -63.45 -81.44 0zm202.78 -202.45l-87.2 0 0 265.84 87.2 0c64.9,0 111.11,-55.6 111.11,-133.11 0,-77.64 -46.01,-132.73 -111.11,-132.73l0 0zm-2.83 198.71l-24.7 0 0 -131.59 24.7 0c31.83,0 53.05,26.16 53.05,65.61 0,39.13 -21.22,65.98 -53.05,65.98l0 0zm252.53 73.9c69.17,0 118.42,-58.19 118.42,-139.69 0,-81.5 -49.25,-139.7 -118.42,-139.7 -69.32,0 -118.77,58.39 -118.77,139.7 0,81.31 49.45,139.69 118.77,139.69l0 0zm0 -68.14c-32.81,0 -56.94,-30.14 -56.94,-71.55 0,-41.42 24.13,-71.56 56.94,-71.56 32.82,0 56.6,29.95 56.6,71.56 0,41.67 -23.78,71.55 -56.6,71.55l0 0zm264.61 61.43l66.34 0 -42.82 -96.63c21.31,-15.65 34.2,-42.31 34.2,-75.17 0,-55.73 -33.69,-94.16 -80.06,-94.16l-93.35 0 0 265.96 59.47 0 0 -81.31 21.4 0 34.82 81.31zm-56.22 -200.99l26.95 0c16.53,0 26.09,12.22 26.09,29 0,16.72 -9.56,29.13 -26.09,29.13l-26.95 0 0 -58.13z"/>
</g>
</svg>
